# 3ds Max Wavefront OBJ Exporter v0.97b - (c)2007 guruware
# 创建的文件:24.03.2020 13:45:58

mtllib 2222.mtl

#
# object Box001
#

v  -0.3333 0.8333 0.5000
v  -0.5000 0.8333 0.5000
v  -0.3333 0.6667 0.5000
v  -0.1667 0.6667 0.5000
v  0.0000 0.6667 0.5000
v  -0.1667 0.8333 0.5000
v  -0.5000 0.6667 0.5000
v  -0.3333 0.5000 0.5000
v  -0.1667 0.5000 0.5000
v  0.0000 0.5000 0.5000
v  -0.5000 0.5000 0.5000
v  -0.3333 0.3333 0.5000
v  -0.1667 0.3333 0.5000
v  0.0000 0.3333 0.5000
v  -0.5000 0.3333 0.5000
v  -0.3333 0.1667 0.5000
v  -0.1667 0.1667 0.5000
v  0.0000 0.1667 0.5000
v  0.1667 0.6667 0.5000
v  0.0000 0.8333 0.5000
v  0.1667 0.5000 0.5000
v  0.1667 0.3333 0.5000
v  0.1667 0.1667 0.5000
v  0.3333 0.6667 0.5000
v  0.1667 0.8333 0.5000
v  0.3333 0.5000 0.5000
v  0.3333 0.3333 0.5000
v  0.3333 0.1667 0.5000
v  0.5000 0.6667 0.5000
v  0.3333 0.8333 0.5000
v  0.5000 0.5000 0.5000
v  0.5000 0.3333 0.5000
v  0.5000 0.1667 0.5000
v  -0.5000 1.0000 0.5000
v  -0.3333 1.0000 0.5000
v  -0.3333 0.0000 0.5000
v  -0.1667 0.0000 0.5000
v  -0.5000 0.1667 0.5000
v  -0.5000 0.0000 0.5000
v  0.5000 0.0000 0.5000
v  0.3333 0.0000 0.5000
v  0.3333 1.0000 0.5000
v  0.1667 1.0000 0.5000
v  0.5000 0.8333 0.5000
v  0.5000 1.0000 0.5000
v  0.0000 0.0000 0.5000
v  0.0000 1.0000 0.5000
v  0.1667 0.0000 0.5000
v  -0.1667 1.0000 0.5000
v  0.5000 0.8333 0.3333
v  0.5000 0.6667 0.3333
v  0.5000 0.6667 0.1667
v  0.5000 0.6667 -0.0000
v  0.5000 0.8333 0.1667
v  0.5000 0.5000 0.3333
v  0.5000 0.5000 0.1667
v  0.5000 0.5000 -0.0000
v  0.5000 0.3333 0.3333
v  0.5000 0.3333 0.1667
v  0.5000 0.3333 -0.0000
v  0.5000 0.1667 0.3333
v  0.5000 0.1667 0.1667
v  0.5000 0.1667 -0.0000
v  0.5000 0.6667 -0.1667
v  0.5000 0.8333 -0.0000
v  0.5000 0.5000 -0.1667
v  0.5000 0.3333 -0.1667
v  0.5000 0.1667 -0.1667
v  0.5000 0.6667 -0.3333
v  0.5000 0.8333 -0.1667
v  0.5000 0.5000 -0.3333
v  0.5000 0.3333 -0.3333
v  0.5000 0.1667 -0.3333
v  0.5000 0.6667 -0.5000
v  0.5000 0.8333 -0.3333
v  0.5000 0.5000 -0.5000
v  0.5000 0.3333 -0.5000
v  0.5000 0.1667 -0.5000
v  0.5000 1.0000 0.3333
v  0.5000 0.0000 0.3333
v  0.5000 0.0000 0.1667
v  0.5000 0.0000 -0.5000
v  0.5000 0.0000 -0.3333
v  0.5000 1.0000 -0.3333
v  0.5000 1.0000 -0.1667
v  0.5000 0.8333 -0.5000
v  0.5000 1.0000 -0.5000
v  0.5000 0.0000 -0.0000
v  0.5000 1.0000 -0.0000
v  0.5000 0.0000 -0.1667
v  0.5000 1.0000 0.1667
v  0.3333 0.8333 -0.5000
v  0.3333 0.6667 -0.5000
v  0.1667 0.6667 -0.5000
v  0.0000 0.6667 -0.5000
v  0.1667 0.8333 -0.5000
v  0.3333 0.5000 -0.5000
v  0.1667 0.5000 -0.5000
v  0.0000 0.5000 -0.5000
v  0.3333 0.3333 -0.5000
v  0.1667 0.3333 -0.5000
v  0.0000 0.3333 -0.5000
v  0.3333 0.1667 -0.5000
v  0.1667 0.1667 -0.5000
v  0.0000 0.1667 -0.5000
v  -0.1667 0.6667 -0.5000
v  0.0000 0.8333 -0.5000
v  -0.1667 0.5000 -0.5000
v  -0.1667 0.3333 -0.5000
v  -0.1667 0.1667 -0.5000
v  -0.3333 0.6667 -0.5000
v  -0.1667 0.8333 -0.5000
v  -0.3333 0.5000 -0.5000
v  -0.3333 0.3333 -0.5000
v  -0.3333 0.1667 -0.5000
v  -0.5000 0.6667 -0.5000
v  -0.3333 0.8333 -0.5000
v  -0.5000 0.5000 -0.5000
v  -0.5000 0.3333 -0.5000
v  -0.5000 0.1667 -0.5000
v  0.3333 1.0000 -0.5000
v  0.3333 0.0000 -0.5000
v  0.1667 0.0000 -0.5000
v  -0.5000 0.0000 -0.5000
v  -0.3333 0.0000 -0.5000
v  -0.3333 1.0000 -0.5000
v  -0.1667 1.0000 -0.5000
v  -0.5000 0.8333 -0.5000
v  -0.5000 1.0000 -0.5000
v  0.0000 0.0000 -0.5000
v  0.0000 1.0000 -0.5000
v  -0.1667 0.0000 -0.5000
v  0.1667 1.0000 -0.5000
v  -0.5000 0.8333 -0.3333
v  -0.5000 0.6667 -0.3333
v  -0.5000 0.6667 -0.1667
v  -0.5000 0.6667 -0.0000
v  -0.5000 0.8333 -0.1667
v  -0.5000 0.5000 -0.3333
v  -0.5000 0.5000 -0.1667
v  -0.5000 0.5000 -0.0000
v  -0.5000 0.3333 -0.3333
v  -0.5000 0.3333 -0.1667
v  -0.5000 0.3333 -0.0000
v  -0.5000 0.1667 -0.3333
v  -0.5000 0.1667 -0.1667
v  -0.5000 0.1667 -0.0000
v  -0.5000 0.6667 0.1667
v  -0.5000 0.8333 -0.0000
v  -0.5000 0.5000 0.1667
v  -0.5000 0.3333 0.1667
v  -0.5000 0.1667 0.1667
v  -0.5000 0.6667 0.3333
v  -0.5000 0.8333 0.1667
v  -0.5000 0.5000 0.3333
v  -0.5000 0.3333 0.3333
v  -0.5000 0.1667 0.3333
v  -0.5000 0.8333 0.3333
v  -0.5000 1.0000 -0.3333
v  -0.5000 0.0000 -0.3333
v  -0.5000 0.0000 -0.1667
v  -0.5000 0.0000 0.3333
v  -0.5000 1.0000 0.3333
v  -0.5000 1.0000 0.1667
v  -0.5000 0.0000 -0.0000
v  -0.5000 1.0000 -0.0000
v  -0.5000 0.0000 0.1667
v  -0.5000 1.0000 -0.1667
v  -0.3333 0.0000 0.3333
v  -0.3333 0.0000 0.1667
v  -0.1667 0.0000 0.1667
v  0.0000 0.0000 0.1667
v  -0.1667 0.0000 0.3333
v  -0.3333 0.0000 -0.0000
v  -0.1667 0.0000 -0.0000
v  0.0000 0.0000 -0.0000
v  -0.3333 0.0000 -0.1667
v  -0.1667 0.0000 -0.1667
v  0.0000 0.0000 -0.1667
v  -0.3333 0.0000 -0.3333
v  -0.1667 0.0000 -0.3333
v  0.0000 0.0000 -0.3333
v  0.1667 0.0000 0.1667
v  0.0000 0.0000 0.3333
v  0.1667 0.0000 -0.0000
v  0.1667 0.0000 -0.1667
v  0.1667 0.0000 -0.3333
v  0.3333 0.0000 0.1667
v  0.1667 0.0000 0.3333
v  0.3333 0.0000 -0.0000
v  0.3333 0.0000 -0.1667
v  0.3333 0.0000 -0.3333
v  0.3333 0.0000 0.3333
v  -0.3333 1.0000 -0.3333
v  -0.3333 1.0000 -0.1667
v  -0.1667 1.0000 -0.1667
v  0.0000 1.0000 -0.1667
v  -0.1667 1.0000 -0.3333
v  -0.3333 1.0000 0.0000
v  -0.1667 1.0000 -0.0000
v  0.0000 1.0000 -0.0000
v  -0.3333 1.0000 0.1667
v  -0.1667 1.0000 0.1667
v  0.0000 1.0000 0.1667
v  -0.3333 1.0000 0.3333
v  -0.1667 1.0000 0.3333
v  0.0000 1.0000 0.3333
v  0.1667 1.0000 -0.1667
v  0.0000 1.0000 -0.3333
v  0.1667 1.0000 -0.0000
v  0.1667 1.0000 0.1667
v  0.1667 1.0000 0.3333
v  0.3333 1.0000 -0.1667
v  0.1667 1.0000 -0.3333
v  0.3333 1.0000 -0.0000
v  0.3333 1.0000 0.1667
v  0.3333 1.0000 0.3333
v  0.3333 1.0000 -0.3333
# 218 vertices

vn 0.0000 -0.0000 1.0000
vn -0.7071 -0.0000 0.7071
vn 0.0000 0.0000 1.0000
vn -0.0000 0.0000 1.0000
vn -0.0000 -0.0000 1.0000
vn -0.7071 0.0000 0.7071
vn 0.7071 0.0000 0.7071
vn 0.7071 -0.0000 0.7071
vn -0.5774 0.5774 0.5774
vn -0.0000 0.7071 0.7071
vn 0.0000 -0.7071 0.7071
vn -0.0000 -0.7071 0.7071
vn -0.5774 -0.5774 0.5774
vn 0.5774 -0.5774 0.5774
vn 0.0000 0.7071 0.7071
vn 0.5774 0.5774 0.5774
vn 1.0000 -0.0000 -0.0000
vn 1.0000 0.0000 -0.0000
vn 1.0000 0.0000 0.0000
vn 1.0000 -0.0000 0.0000
vn 0.7071 0.0000 -0.7071
vn 0.7071 -0.0000 -0.7071
vn 0.7071 0.7071 0.0000
vn 0.7071 -0.7071 -0.0000
vn 0.7071 -0.7071 0.0000
vn 0.5774 -0.5774 -0.5774
vn 0.7071 0.7071 -0.0000
vn 0.5774 0.5774 -0.5774
vn -0.0000 -0.0000 -1.0000
vn -0.0000 0.0000 -1.0000
vn 0.0000 0.0000 -1.0000
vn 0.0000 -0.0000 -1.0000
vn -0.7071 0.0000 -0.7071
vn -0.7071 -0.0000 -0.7071
vn 0.0000 0.7071 -0.7071
vn -0.0000 -0.7071 -0.7071
vn 0.0000 -0.7071 -0.7071
vn -0.5774 -0.5774 -0.5774
vn -0.0000 0.7071 -0.7071
vn -0.5774 0.5774 -0.5774
vn -1.0000 -0.0000 0.0000
vn -1.0000 0.0000 0.0000
vn -1.0000 0.0000 -0.0000
vn -1.0000 -0.0000 -0.0000
vn -0.7071 0.7071 -0.0000
vn -0.7071 -0.7071 0.0000
vn -0.7071 -0.7071 -0.0000
vn -0.7071 0.7071 0.0000
vn 0.0000 -1.0000 -0.0000
vn 0.0000 1.0000 -0.0000
vn -0.0000 1.0000 -0.0000
vn -0.0000 1.0000 0.0000
vn 0.0000 1.0000 0.0000
# 53 vertex normals

vt 0.1667 0.8333 0.0000
vt 0.0000 0.8333 0.0000
vt 0.1667 0.6667 0.0000
vt 0.3333 0.6667 0.0000
vt 0.5000 0.6667 0.0000
vt 0.3333 0.8333 0.0000
vt 0.0000 0.6667 0.0000
vt 0.1667 0.5000 0.0000
vt 0.3333 0.5000 0.0000
vt 0.5000 0.5000 0.0000
vt 0.0000 0.5000 0.0000
vt 0.1667 0.3333 0.0000
vt 0.3333 0.3333 0.0000
vt 0.5000 0.3333 0.0000
vt 0.0000 0.3333 0.0000
vt 0.1667 0.1667 0.0000
vt 0.3333 0.1667 0.0000
vt 0.5000 0.1667 0.0000
vt 0.6667 0.6667 0.0000
vt 0.5000 0.8333 0.0000
vt 0.6667 0.5000 0.0000
vt 0.6667 0.3333 0.0000
vt 0.6667 0.1667 0.0000
vt 0.8333 0.6667 0.0000
vt 0.6667 0.8333 0.0000
vt 0.8333 0.5000 0.0000
vt 0.8333 0.3333 0.0000
vt 0.8333 0.1667 0.0000
vt 1.0000 0.6667 0.0000
vt 0.8333 0.8333 0.0000
vt 1.0000 0.5000 0.0000
vt 1.0000 0.3333 0.0000
vt 1.0000 0.1667 0.0000
vt 0.0000 1.0000 0.0000
vt 0.1667 1.0000 0.0000
vt 0.1667 0.0000 0.0000
vt 0.3333 0.0000 0.0000
vt 0.0000 0.1667 0.0000
vt 0.0000 0.0000 0.0000
vt 1.0000 0.0000 0.0000
vt 0.8333 0.0000 0.0000
vt 0.8333 1.0000 0.0000
vt 0.6667 1.0000 0.0000
vt 1.0000 0.8333 0.0000
vt 1.0000 1.0000 0.0000
vt 0.5000 0.0000 0.0000
vt 0.5000 1.0000 0.0000
vt 0.6667 0.0000 0.0000
vt 0.3333 1.0000 0.0000
# 49 texture coords

o Box001
g Box001
usemtl wire_061135006
s 1
f 1/1/1 2/2/2 3/3/3 4/4/4 
f 4/4/4 5/5/4 6/6/5 1/1/1 
f 3/3/3 7/7/6 8/8/3 9/9/4 
f 9/9/4 10/10/4 4/4/4 3/3/3 
f 8/8/3 11/11/6 12/12/1 13/13/4 
f 13/13/4 14/14/4 9/9/4 8/8/3 
f 12/12/1 15/15/2 16/16/1 17/17/5 
f 17/17/5 18/18/5 13/13/4 12/12/1 
f 5/5/4 19/19/3 20/20/5 6/6/5 
f 10/10/4 21/21/3 5/5/4 4/4/4 
f 14/14/4 22/22/3 10/10/4 9/9/4 
f 18/18/5 23/23/3 14/14/4 13/13/4 
f 19/19/3 24/24/4 25/25/1 20/20/5 
f 21/21/3 26/26/3 19/19/3 5/5/4 
f 22/22/3 27/27/3 21/21/3 10/10/4 
f 23/23/3 28/28/3 22/22/3 14/14/4 
f 24/24/4 29/29/7 30/30/4 25/25/1 
f 26/26/3 31/31/8 24/24/4 19/19/3 
f 27/27/3 32/32/8 26/26/3 21/21/3 
f 28/28/3 33/33/7 27/27/3 22/22/3 
f 34/34/9 2/2/2 1/1/1 35/35/10 
f 36/36/11 37/37/12 16/16/1 38/38/6 
f 38/38/6 39/39/13 36/36/11 
f 40/40/14 33/33/7 28/28/3 41/41/11 
f 42/42/10 43/43/15 30/30/4 44/44/8 
f 44/44/8 45/45/16 42/42/10 
f 2/2/2 7/7/6 3/3/3 
f 37/37/12 46/46/12 17/17/5 16/16/1 
f 33/33/7 32/32/8 27/27/3 
f 43/43/15 47/47/15 25/25/1 30/30/4 
f 7/7/6 11/11/6 8/8/3 
f 46/46/12 48/48/11 18/18/5 17/17/5 
f 32/32/8 31/31/8 26/26/3 
f 47/47/15 49/49/15 20/20/5 25/25/1 
f 11/11/6 15/15/2 12/12/1 
f 48/48/11 41/41/11 23/23/3 18/18/5 
f 31/31/8 29/29/7 24/24/4 
f 49/49/15 35/35/10 6/6/5 20/20/5 
f 15/15/2 38/38/6 16/16/1 
f 41/41/11 28/28/3 23/23/3 
f 29/29/7 44/44/8 30/30/4 
f 35/35/10 1/1/1 6/6/5 
s 2
f 50/1/17 44/2/8 51/3/18 52/4/19 
f 52/4/19 53/5/19 54/6/20 50/1/17 
f 51/3/18 29/7/7 55/8/18 56/9/19 
f 56/9/19 57/10/19 52/4/19 51/3/18 
f 55/8/18 31/11/8 58/12/20 59/13/19 
f 59/13/19 60/14/19 56/9/19 55/8/18 
f 58/12/20 32/15/8 61/16/18 62/17/20 
f 62/17/20 63/18/20 59/13/19 58/12/20 
f 53/5/19 64/19/18 65/20/20 54/6/20 
f 57/10/19 66/21/18 53/5/19 52/4/19 
f 60/14/19 67/22/18 57/10/19 56/9/19 
f 63/18/20 68/23/18 60/14/19 59/13/19 
f 64/19/18 69/24/19 70/25/17 65/20/20 
f 66/21/18 71/26/18 64/19/18 53/5/19 
f 67/22/18 72/27/18 66/21/18 57/10/19 
f 68/23/18 73/28/18 67/22/18 60/14/19 
f 69/24/19 74/29/21 75/30/19 70/25/17 
f 71/26/18 76/31/22 69/24/19 64/19/18 
f 72/27/18 77/32/22 71/26/18 66/21/18 
f 73/28/18 78/33/21 72/27/18 67/22/18 
f 45/34/16 44/2/8 50/1/17 79/35/23 
f 80/36/24 81/37/25 61/16/18 33/38/7 
f 33/38/7 40/39/14 80/36/24 
f 82/40/26 78/33/21 73/28/18 83/41/24 
f 84/42/23 85/43/27 75/30/19 86/44/22 
f 86/44/22 87/45/28 84/42/23 
f 44/2/8 29/7/7 51/3/18 
f 81/37/25 88/46/25 62/17/20 61/16/18 
f 78/33/21 77/32/22 72/27/18 
f 85/43/27 89/47/27 70/25/17 75/30/19 
f 29/7/7 31/11/8 55/8/18 
f 88/46/25 90/48/24 63/18/20 62/17/20 
f 77/32/22 76/31/22 71/26/18 
f 89/47/27 91/49/27 65/20/20 70/25/17 
f 31/11/8 32/15/8 58/12/20 
f 90/48/24 83/41/24 68/23/18 63/18/20 
f 76/31/22 74/29/21 69/24/19 
f 91/49/27 79/35/23 54/6/20 65/20/20 
f 32/15/8 33/38/7 61/16/18 
f 83/41/24 73/28/18 68/23/18 
f 74/29/21 86/44/22 75/30/19 
f 79/35/23 50/1/17 54/6/20 
s 4
f 92/1/29 86/2/22 93/3/30 94/4/31 
f 94/4/31 95/5/31 96/6/32 92/1/29 
f 93/3/30 74/7/21 97/8/30 98/9/31 
f 98/9/31 99/10/31 94/4/31 93/3/30 
f 97/8/30 76/11/22 100/12/32 101/13/31 
f 101/13/31 102/14/31 98/9/31 97/8/30 
f 100/12/32 77/15/22 103/16/30 104/17/32 
f 104/17/32 105/18/32 101/13/31 100/12/32 
f 95/5/31 106/19/31 107/20/32 96/6/32 
f 99/10/31 108/21/31 95/5/31 94/4/31 
f 102/14/31 109/22/31 99/10/31 98/9/31 
f 105/18/32 110/23/31 102/14/31 101/13/31 
f 106/19/31 111/24/31 112/25/32 107/20/32 
f 108/21/31 113/26/31 106/19/31 95/5/31 
f 109/22/31 114/27/30 108/21/31 99/10/31 
f 110/23/31 115/28/30 109/22/31 102/14/31 
f 111/24/31 116/29/33 117/30/31 112/25/32 
f 113/26/31 118/31/34 111/24/31 106/19/31 
f 114/27/30 119/32/34 113/26/31 108/21/31 
f 115/28/30 120/33/33 114/27/30 109/22/31 
f 87/34/28 86/2/22 92/1/29 121/35/35 
f 122/36/36 123/37/37 103/16/30 78/38/21 
f 78/38/21 82/39/26 122/36/36 
f 124/40/38 120/33/33 115/28/30 125/41/37 
f 126/42/35 127/43/39 117/30/31 128/44/34 
f 128/44/34 129/45/40 126/42/35 
f 86/2/22 74/7/21 93/3/30 
f 123/37/37 130/46/37 104/17/32 103/16/30 
f 120/33/33 119/32/34 114/27/30 
f 127/43/39 131/47/39 112/25/32 117/30/31 
f 74/7/21 76/11/22 97/8/30 
f 130/46/37 132/48/37 105/18/32 104/17/32 
f 119/32/34 118/31/34 113/26/31 
f 131/47/39 133/49/35 107/20/32 112/25/32 
f 76/11/22 77/15/22 100/12/32 
f 132/48/37 125/41/37 110/23/31 105/18/32 
f 118/31/34 116/29/33 111/24/31 
f 133/49/35 121/35/35 96/6/32 107/20/32 
f 77/15/22 78/38/21 103/16/30 
f 125/41/37 115/28/30 110/23/31 
f 116/29/33 128/44/34 117/30/31 
f 121/35/35 92/1/29 96/6/32 
s 8
f 134/1/41 128/2/34 135/3/42 136/4/43 
f 136/4/43 137/5/43 138/6/44 134/1/41 
f 135/3/42 116/7/33 139/8/42 140/9/43 
f 140/9/43 141/10/43 136/4/43 135/3/42 
f 139/8/42 118/11/34 142/12/44 143/13/43 
f 143/13/43 144/14/43 140/9/43 139/8/42 
f 142/12/44 119/15/34 145/16/42 146/17/44 
f 146/17/44 147/18/44 143/13/43 142/12/44 
f 137/5/43 148/19/43 149/20/44 138/6/44 
f 141/10/43 150/21/43 137/5/43 136/4/43 
f 144/14/43 151/22/43 141/10/43 140/9/43 
f 147/18/44 152/23/43 144/14/43 143/13/43 
f 148/19/43 153/24/43 154/25/44 149/20/44 
f 150/21/43 155/26/43 148/19/43 137/5/43 
f 151/22/43 156/27/43 150/21/43 141/10/43 
f 152/23/43 157/28/43 151/22/43 144/14/43 
f 153/24/43 7/29/6 158/30/44 154/25/44 
f 155/26/43 11/31/6 153/24/43 148/19/43 
f 156/27/43 15/32/2 155/26/43 150/21/43 
f 157/28/43 38/33/6 156/27/43 151/22/43 
f 129/34/40 128/2/34 134/1/41 159/35/45 
f 160/36/46 161/37/47 145/16/42 120/38/33 
f 120/38/33 124/39/38 160/36/46 
f 39/40/13 38/33/6 157/28/43 162/41/47 
f 163/42/45 164/43/48 158/30/44 2/44/2 
f 2/44/2 34/45/9 163/42/45 
f 128/2/34 116/7/33 135/3/42 
f 161/37/47 165/46/47 146/17/44 145/16/42 
f 38/33/6 15/32/2 156/27/43 
f 164/43/48 166/47/48 154/25/44 158/30/44 
f 116/7/33 118/11/34 139/8/42 
f 165/46/47 167/48/47 147/18/44 146/17/44 
f 15/32/2 11/31/6 155/26/43 
f 166/47/48 168/49/45 149/20/44 154/25/44 
f 118/11/34 119/15/34 142/12/44 
f 167/48/47 162/41/47 152/23/43 147/18/44 
f 11/31/6 7/29/6 153/24/43 
f 168/49/45 159/35/45 138/6/44 149/20/44 
f 119/15/34 120/38/33 145/16/42 
f 162/41/47 157/28/43 152/23/43 
f 7/29/6 2/44/2 158/30/44 
f 159/35/45 134/1/41 138/6/44 
s 16
f 169/28/49 162/33/47 170/27/49 171/22/49 
f 171/22/49 172/14/49 173/23/49 169/28/49 
f 170/27/49 167/32/47 174/26/49 175/21/49 
f 175/21/49 176/10/49 171/22/49 170/27/49 
f 174/26/49 165/31/47 177/24/49 178/19/49 
f 178/19/49 179/5/49 175/21/49 174/26/49 
f 177/24/49 161/29/47 180/30/49 181/25/49 
f 181/25/49 182/20/49 178/19/49 177/24/49 
f 172/14/49 183/13/49 184/18/49 173/23/49 
f 176/10/49 185/9/49 172/14/49 171/22/49 
f 179/5/49 186/4/49 176/10/49 175/21/49 
f 182/20/49 187/6/49 179/5/49 178/19/49 
f 183/13/49 188/12/49 189/17/49 184/18/49 
f 185/9/49 190/8/49 183/13/49 172/14/49 
f 186/4/49 191/3/49 185/9/49 176/10/49 
f 187/6/49 192/1/49 186/4/49 179/5/49 
f 188/12/49 81/15/25 193/16/49 189/17/49 
f 190/8/49 88/11/25 188/12/49 183/13/49 
f 191/3/49 90/7/24 190/8/49 185/9/49 
f 192/1/49 83/2/24 191/3/49 186/4/49 
f 39/40/13 162/33/47 169/28/49 36/41/11 
f 125/42/37 132/43/37 180/30/49 160/44/46 
f 160/44/46 124/45/38 125/42/37 
f 82/34/26 83/2/24 192/1/49 122/35/36 
f 41/36/11 48/37/11 193/16/49 80/38/24 
f 80/38/24 40/39/14 41/36/11 
f 162/33/47 167/32/47 170/27/49 
f 132/43/37 130/47/37 181/25/49 180/30/49 
f 83/2/24 90/7/24 191/3/49 
f 48/37/11 46/46/12 189/17/49 193/16/49 
f 167/32/47 165/31/47 174/26/49 
f 130/47/37 123/49/37 182/20/49 181/25/49 
f 90/7/24 88/11/25 190/8/49 
f 46/46/12 37/48/12 184/18/49 189/17/49 
f 165/31/47 161/29/47 177/24/49 
f 123/49/37 122/35/36 187/6/49 182/20/49 
f 88/11/25 81/15/25 188/12/49 
f 37/48/12 36/41/11 173/23/49 184/18/49 
f 161/29/47 160/44/46 180/30/49 
f 122/35/36 192/1/49 187/6/49 
f 81/15/25 80/38/24 193/16/49 
f 36/41/11 169/28/49 173/23/49 
s 32
f 194/1/50 159/2/45 195/3/50 196/4/51 
f 196/4/51 197/5/51 198/6/52 194/1/50 
f 195/3/50 168/7/45 199/8/50 200/9/51 
f 200/9/51 201/10/51 196/4/51 195/3/50 
f 199/8/50 166/11/48 202/12/52 203/13/51 
f 203/13/51 204/14/51 200/9/51 199/8/50 
f 202/12/52 164/15/48 205/16/50 206/17/52 
f 206/17/52 207/18/52 203/13/51 202/12/52 
f 197/5/51 208/19/50 209/20/52 198/6/52 
f 201/10/51 210/21/50 197/5/51 196/4/51 
f 204/14/51 211/22/50 201/10/51 200/9/51 
f 207/18/52 212/23/53 204/14/51 203/13/51 
f 208/19/50 213/24/51 214/25/53 209/20/52 
f 210/21/50 215/26/50 208/19/50 197/5/51 
f 211/22/50 216/27/50 210/21/50 201/10/51 
f 212/23/53 217/28/53 211/22/50 204/14/51 
f 213/24/51 85/29/27 218/30/52 214/25/53 
f 215/26/50 89/31/27 213/24/51 208/19/50 
f 216/27/50 91/32/27 215/26/50 210/21/50 
f 217/28/53 79/33/23 216/27/50 211/22/50 
f 129/34/40 159/2/45 194/1/50 126/35/35 
f 35/36/10 49/37/15 205/16/50 163/38/45 
f 163/38/45 34/39/9 35/36/10 
f 45/40/16 79/33/23 217/28/53 42/41/10 
f 121/42/35 133/43/35 218/30/52 84/44/23 
f 84/44/23 87/45/28 121/42/35 
f 159/2/45 168/7/45 195/3/50 
f 49/37/15 47/46/15 206/17/52 205/16/50 
f 79/33/23 91/32/27 216/27/50 
f 133/43/35 131/47/39 214/25/53 218/30/52 
f 168/7/45 166/11/48 199/8/50 
f 47/46/15 43/48/15 207/18/52 206/17/52 
f 91/32/27 89/31/27 215/26/50 
f 131/47/39 127/49/39 209/20/52 214/25/53 
f 166/11/48 164/15/48 202/12/52 
f 43/48/15 42/41/10 212/23/53 207/18/52 
f 89/31/27 85/29/27 213/24/51 
f 127/49/39 126/35/35 198/6/52 209/20/52 
f 164/15/48 163/38/45 205/16/50 
f 42/41/10 217/28/53 212/23/53 
f 85/29/27 84/44/23 218/30/52 
f 126/35/35 194/1/50 198/6/52 
# 180 polygons - 72 triangles

